<?xml version="1.0" encoding="UTF-8"?>
<svg version="1.1" xmlns="http://www.w3.org/2000/svg" width="192" height="192">
<path d="M0 0 C63.36 0 126.72 0 192 0 C192 63.36 192 126.72 192 192 C128.64 192 65.28 192 0 192 C0 128.64 0 65.28 0 0 Z " fill="#F98700" transform="translate(0,0)"/>
<path d="M0 0 C21.78 0 43.56 0 66 0 C66 6.6 66 13.2 66 20 C72.27 20 78.54 20 85 20 C85 35.18 85 50.36 85 66 C78.73 66 72.46 66 66 66 C66 69.3 66 72.6 66 76 C72.27 76 78.54 76 85 76 C85 91.51 85 107.02 85 123 C78.73 123 72.46 123 66 123 C66 129.27 66 135.54 66 142 C44.22 142 22.44 142 0 142 C0 135.73 0 129.46 0 123 C-6.27 123 -12.54 123 -19 123 C-19 88.68 -19 54.36 -19 19 C-12.73 19 -6.46 19 0 19 C0 12.73 0 6.46 0 0 Z " fill="#FEFCFA" transform="translate(63,25)"/>
<path d="M0 0 C15.84 0 31.68 0 48 0 C48 9.57 48 19.14 48 29 C35.46 29 22.92 29 10 29 C10 38.24 10 47.48 10 57 C22.54 57 35.08 57 48 57 C48 66.57 48 76.14 48 86 C32.16 86 16.32 86 0 86 C0 57.62 0 29.24 0 0 Z " fill="#F98701" transform="translate(72,53)"/>
<path d="M0 0 C0.33 0.66 0.66 1.32 1 2 C1.66 2 2.32 2 3 2 C3 2.99 3 3.98 3 5 C3.99 5.33 4.98 5.66 6 6 C6 6.66 6 7.32 6 8 C6.99 8 7.98 8 9 8 C9 8.66 9 9.32 9 10 C9.66 10.33 10.32 10.66 11 11 C7.37 11 3.74 11 0 11 C0 7.37 0 3.74 0 0 Z " fill="#000000" transform="translate(0,181)"/>
<path d="M0 0 C0.33 0 0.66 0 1 0 C1 3.63 1 7.26 1 11 C-2.63 11 -6.26 11 -10 11 C-9.34 10.67 -8.68 10.34 -8 10 C-8 9.34 -8 8.68 -8 8 C-7.01 8 -6.02 8 -5 8 C-4.67 7.01 -4.34 6.02 -4 5 C-3.34 5 -2.68 5 -2 5 C-2 4.01 -2 3.02 -2 2 C-1.34 2 -0.68 2 0 2 C0 1.34 0 0.68 0 0 Z " fill="#000000" transform="translate(191,181)"/>
<path d="M0 0 C3.63 0 7.26 0 11 0 C11 3.63 11 7.26 11 11 C10.67 10.34 10.34 9.68 10 9 C9.34 9 8.68 9 8 9 C8 8.01 8 7.02 8 6 C7.01 5.67 6.02 5.34 5 5 C5 4.34 5 3.68 5 3 C4.01 3 3.02 3 2 3 C2 2.34 2 1.68 2 1 C1.34 0.67 0.68 0.34 0 0 Z " fill="#000000" transform="translate(181,0)"/>
<path d="M0 0 C3.63 0 7.26 0 11 0 C10.01 0.495 10.01 0.495 9 1 C9 1.66 9 2.32 9 3 C8.01 3 7.02 3 6 3 C5.67 3.99 5.34 4.98 5 6 C4.34 6 3.68 6 3 6 C3 6.99 3 7.98 3 9 C2.34 9 1.68 9 1 9 C0.67 9.66 0.34 10.32 0 11 C0 7.37 0 3.74 0 0 Z " fill="#000000" transform="translate(0,0)"/>
</svg>
